<svg viewBox="0 0 305.89 366.27" xmlns="http://www.w3.org/2000/svg" xmlns:xlink="http://www.w3.org/1999/xlink"><path d="m128.83 56.687-2.756 8.1c12.729-.057 24.086-1.963 42.029 5.027 17.629 6.44 33.055-7.186 24.253-20.528-5.251-7.96-27.705-7.733-18.603 2.234 7.257 2.91 2.745 5.655.55 6.005-7.303 1.03-14.606-.26-21.91-1.396-10.79-2.076-24.483.457-23.562.559z" fill="#de8787" stroke="#000" stroke-width="2"/><path d="M125.94 63.574c12.87-.598 26.397-.397 39.962 4.05 7.57 3.664 11.572 2.502 16.983 1.425-6.339.905-11.195-.288-17.534-3.101-12.321-4.471-25.299-5.392-38.721-3.91v1.117l-.689-.139v.559z" fill="#8a0000"/><path d="M182.88 69.048c13.994-5.565 13.124-21.596-1.81-23.771 10.823 6.997 12.286 13.053 1.81 23.771z" fill="#ca5d5d"/><path d="M133.401 198.75c1.679 3.412 4.907 4.675 8.193 5.495 27.182 6.785 25.192 12.903 35.857 19.354 14.786 3.92 25.698 12.201 35.857 21.33 8.764 6.574 12.328 2.605 18.318 3.555-1.563 1.712-.261 3.423-5.066 5.135 17.905 8.426 24.572 16.852 22.216 25.278-4.032-6.362-11.56-11.544-21.825-15.8-3.396 2.267-2.427 5.64.39 9.48-6.495.237-10.014-6.165-14.03-11.454-3.669 2.87-8.331 4.631-4.219 16.233 1.949 5.497-7.169 8.482-13.71 9.44 7.046 1.27 9.46 6.51 9.772 13.553 2.994 12.767 8.001 13.294 12.444 17.256l19.097.394c-1.614-16.344 8.14-15.407 19.877-11.454l-1.949 16.194c-1.825 6.17-2.82 13.105-10.133 14.22l-10.523 13.429c-7.145 1.875-14.291 3.015-21.437-2.37-2.078 2.633-3.897 2.633-5.456 0-3.192 3.018-4.714 1.805-5.846-.394l-14.81-6.32c-9.6-1.137-9.115 5.026-12.083 8.69-4.117-7.777-1.797-14.33 2.338-20.54-7.492 3.52-14.39 7.46-16.759 14.615-2.685-8.177.002-15.917 5.067-20.144-6.57 4.572-13.042 7.458-19.098 3.16 5.053-6.188 7.417-12.376 6.236-18.565-6.543 1.36-6.012-3.732-7.795-6.715 7.904.787 10.84-9.332 15.98-14.614-6.236 3.22-12.472 2.59-18.708 11.454-4.447-9.623-1.228-13.865.78-18.96-7.909-1.322-9.583-7.997-10.913-12.639 4.937 4.77 9.873 6.154 14.81 5.135-5.173-7.836-3.521-14.414 2.729-20.144 4.447 22.485 13.8 3.04 8.963 1.975-2.625-9.638-7.682-6.138-11.692-8.295l-7.405 1.58-10.134-6.32-2.728 2.37c-14.716-25.822.753-32.396 7.396-44.596z" fill="#ff0"/><path d="M136.23 224.65s13.855 8.725 17.57 13.06l-20.531-6.703zm-4.341 13.339 8.271 4.33 6.751-1.4 4.546-.556 11.99.279-12.265 2.374 8.268 2.512 3.582 7.684c2.175 7.742.396 8.705-5.235 13.683-5.876-1.46-8.667-3.253-10.059-8.656l-.827 4.887c-.79 6.012 3.607 9.477 7.304 12.57-4.21-.104-8.37-.603-12.542-1.121 2.843 3.342 7.497 3.28 11.574 4.193l-8.126 1.394c-2.648 3.554-2.8 6.928-3.17 11.172 5.17-4.729 13.1-5.239 18.463-7.821l4.27-6.003-2.342 9.075-2.48 6.982-6.062 7.684-5.513 2.234 3.307 2.233 5.238-.975 7.578-6.983c-2.178 4.853-5.216 8.654-8.82 12.429-.649 6.889-2.765 11.945-7.44 16.477 9.382.294 16.452-6.928 19.567-13.127l-.411 6.704c-2.435 5.705-5.462 11.83-6.066 17.175 4.815-6.48 12.66-9.682 19.157-11.59-3.404 4.653-4.46 9.748-5.787 15.222l-.141 3.628c4.375-4.897 7.515-5.801 13.644-6.422l6.198 3.213 7.441 4.048 3.17-3.21 1.38 3.77 2.065.279 2.206-3.77 1.379 3.35c1.674.698 2.278.16 3.718-.838 1.902 2.115 4.417 3.178 6.893 4.47 3.655-.612 5.543-2.855 8.13-5.305 0 0 5.786-4.61 5.925-5.168.137-.56-3.033-2.375-3.033-2.375l-3.997 2.096s-4.82 1.536-5.51 1.536c-.688 0-5.375-2.096-5.375-2.096l-3.997-5.305 5.376 2.93c4.792.789 8.167.204 12.402-1.672 4.706-.388 7.423 1.225 11.3 3.35l-.552-1.815-3.723-2.096 4.96 1.117 4.135-2.794 1.653-6.144-4.408-2.233-4.96 3.213s-1.24 2.791-1.929 2.93c-.689.14-6.34 0-6.34 0l-6.061-4.188 5.372 1.677c6.842-.793 7.408-5.936 12.817-8.66 3.52-1.773 5.588 2.815 8.13 5.588-.306-8.079 1.057-13.799-4.008-19.678l.239.043c.945.151 6.493 1.847 7.449 2.14l-1.932 16.077c-1.826 6.17-2.82 13.105-10.133 14.22l-10.525 13.428c-4.16 1.092-8.32 1.893-12.48 1.344l-4.631-1.211a19.123 19.123 0 0 1-2.586-1.332l-1.219-1.713-2.069 1.956-1.563.529c-.038-.004-.076-.014-.114-.02-.038-.1-.953-2.46-1.493-2.324-.133.034-.403.197-.725.415l-.011-.016c-.063.059-.116.09-.177.145-.563.395-.989.73-1.485 1.12-.43.25-.833.422-1.191.487l-2.198-1.732-.658-.176c-.045-.081-.094-.152-.138-.236l-12.013-5.125-.141-.192s-3.035-1.536-3.586-1.536c-.55 0-4.408.56-4.408.56l-.752.588a6.386 6.386 0 0 0-2.36 1.842l-.47.364-2.581 4.992c-.163.256-.316.518-.502.757l-1.748-4.13v-.008a16.182 16.182 0 0 1-.31-1.572l-.144-3.244c.077-1.29.331-2.546.693-3.781l2.998-6.442c.256-.414.494-.832.768-1.242-.084.04-.164.082-.247.121l.247-.533-2.72 1.728c-3.257 1.638-6.266 3.45-8.741 5.643l-.255.168-.114.157c-1.902 1.755-3.465 3.752-4.475 6.14l-.094.13-.415-2.516v-5.584l1.152-5.96c1.033-1.953 2.36-3.68 3.97-5.023-.353.245-.703.463-1.055.698l.345-.47-2.723 1.959a30.28 30.28 0 0 1-2.99 1.536l-4.925 1.453c-.802.092-1.599.103-2.39.028l-3.617-1.027a12.105 12.105 0 0 1-1.74-1.019 35.749 35.749 0 0 0 3.801-5.638l.25-.365.052-.2c2.081-4.076 2.892-8.152 2.147-12.229l.008-.137h-3.562a3.6 3.6 0 0 1-1.379-.791l-2.226-4.518a9.04 9.04 0 0 0-.65-1.395l.031-.004c.776.074 1.492.02 2.179-.102l.646-.032.443-.242c.99-.331 1.897-.84 2.735-1.505l.13-.07.062-.08c1.927-1.593 3.523-3.916 5.094-6.292l.494-.611.536-.945c1.146-1.719 2.315-3.387 3.629-4.737-.42.217-.841.382-1.262.568l.267-.47-6.223 2.684c-1.93.692-3.858 1.506-5.787 2.841l-2.324 1.175-3.475 4.436c-1.227-2.703-1.838-4.974-2.046-6.963l-.09-1.724c.04-4.027 1.757-6.873 3.01-10.05-.07-.013-.131-.031-.2-.044l.321-.736-3.856-1.254-4.27-5.028-2.344-4.47 3.856 2.934 2.218.384c2.724 1.067 5.449 1.268 8.173.706-.113-.172-.206-.339-.313-.51l.258-.023-1.88-3.1a16.95 16.95 0 0 1-.373-.967l-.642-5.972c.48-3.45 2.464-6.622 5.678-9.569.156.793.333 1.417.501 2.109l.16 1.579.604 1.148c2.803 8.523 6.55 6.292 8.205 2.805l.286-.184-.055-.388c.887-2.234.909-4.706-.717-5.086l-.054-.388-.322-.748c-.332-1.005-.692-1.845-1.081-2.54l-.803-1.88-.945-.298c-1.505-1.225-3.21-1.367-4.91-1.548l-.344-.11-.925-.078c-.795-.13-1.582-.312-2.328-.713l-1.7.364-1.524-.133-2.175.92-1.43.307-10.176-5.972zm46.142 8.777 12.402 8.797 1.928 4.33 1.379 6.006 3.581-4.47-.685-3.35 4.408 4.607 1.1-1.955-.548-3.91 1.79 2.935.55 1.395c1.806-.279 2.872.43 4.412 1.257l3.992-3.632 2.07.56 3.859 6.144.964-3.632 2.891-3.77 10.611 4.048 9.095 5.169 6.994 11.394-.004.012-1.085-1.257a28.398 28.398 0 0 0-2.845-3.311l-.717-.831-1.007-.752c-1.338-1.157-2.833-2.259-4.444-3.323l-.337-.255-.27-.149c-1.975-1.265-4.137-2.464-6.481-3.605l-.278-.156-.278-.122a87.127 87.127 0 0 0-4.123-1.845c-.916.611-1.495 1.308-1.826 2.068l-.525.596.224 1.003c.007 1.727.962 3.693 2.515 5.811-.217.008-.423-.008-.634-.016l-2.794-.654-3.233-1.834c-.173-.144-.34-.301-.51-.455l-3.283-3.714-3.444-4.75-.074.048-.06-.079c-.242.19-.487.377-.736.56l-1.199.73-.29.403c-.868.677-1.695 1.4-2.328 2.343l-2.617-2.05-2.896.279.141 4.47-2.343-2.793s-2.48-1.816-2.617-1.258c-.139.559-4.137 5.167-4.412 6.144-.276.978-2.203 2.375-2.203 2.375 1.155-11.391-7.78-19.266-13.78-25.555z" fill="#0f0f0f"/><path d="M248.778 278.899c3.318-12.013-11.395-19.899-22.217-25.279 3.122-.547 3.92-2.983 5.067-5.134-14.165 2.775-17.612-2.153-23.324-7.879-9.438-6.85-18.778-13.992-31.104-17.182-12.185-10.931-22.129-16.856-35.68-18.855l-11.63 3.368-1.305 11.62 10.996-1.44c16.338-1.735 22.782 8.139 32.795 13.826 9.181 1.36 17.963 4.606 26.045 11.172 8.647 6.293 14.826 17.032 27.834 11.87 14.727 13.012 19.622 8.46 22.52 23.913z" fill="#d4aa00"/><path d="M133.401 198.75c1.679 3.412 4.907 4.675 8.193 5.495 27.182 6.785 25.192 12.903 35.857 19.354 14.786 3.92 25.698 12.201 35.857 21.33 8.764 6.574 12.328 2.605 18.318 3.555-1.563 1.712-.261 3.423-5.066 5.135 17.905 8.426 24.572 16.852 22.216 25.278-4.032-6.362-11.56-11.544-21.825-15.8-3.396 2.267-2.427 5.64.39 9.48-6.495.237-10.014-6.165-14.03-11.454-3.669 2.87-8.331 4.631-4.219 16.233 1.949 5.497-7.169 8.482-13.71 9.44 7.046 1.27 9.46 6.51 9.772 13.553 2.994 12.767 8.001 13.294 12.444 17.256l19.097.394c-1.614-16.344 8.14-15.407 19.877-11.454l-1.949 16.194c-1.825 6.17-2.82 13.105-10.133 14.22l-10.523 13.429c-7.145 1.875-14.291 3.015-21.437-2.37-2.078 2.633-3.897 2.633-5.456 0-3.192 3.018-4.714 1.805-5.846-.394l-14.81-6.32c-9.6-1.137-9.115 5.026-12.083 8.69-4.117-7.777-1.797-14.33 2.338-20.54-7.492 3.52-14.39 7.46-16.759 14.615-2.685-8.177.002-15.917 5.067-20.144-6.57 4.572-13.042 7.458-19.098 3.16 5.053-6.188 7.417-12.376 6.236-18.565-6.543 1.36-6.012-3.732-7.795-6.715 7.904.787 10.84-9.332 15.98-14.614-6.236 3.22-12.472 2.59-18.708 11.454-4.447-9.623-1.228-13.865.78-18.96-7.909-1.322-9.583-7.997-10.913-12.639 4.937 4.77 9.873 6.154 14.81 5.135-5.173-7.836-3.521-14.414 2.729-20.144 4.447 22.485 13.8 3.04 8.963 1.975-2.625-9.638-7.682-6.138-11.692-8.295l-7.405 1.58-10.134-6.32-2.728 2.37c-14.716-25.822.753-32.396 7.396-44.596z" fill="none" stroke="#000" stroke-width="2.0001814"/><path d="M133.401 198.75c6.135.249 12.406 1.14 18.555-1.485-1.644 6.906-14.18 11.942-22.564 13.78-2.802-5.772-.349-9.66 4.01-12.294z" fill="#0f0f0f" stroke="#000" stroke-width="2.0001814"/><path d="m210.668 126.006 15.889 30.84c11.731 2.404 17.104 10.757 22.217 19.352 6.396 6.578 13.368 23.852 18.318 3.554-1.74-14.474 4.988-8.214 8.965-8.687l10.521 10.27c2.16 3.295 5.816 6.471 1.56 10.266l-7.014 11.85-3.12 4.345-8.965 15.798c-9.834 7.808-13.815.292-17.538-7.899-2.798 11.55-23.68 11.326-24.945-7.9-2.334 1.726-4.152 4.8-8.962 0-3.987 4.389-4.82 9.578-4.678 15.012-3.959-5.921-6.629-12.483-5.035-18.753 2.02-7.952.345-11.253-.028-16.798-3.882 6.418-4.743 16.132-14.811 15.799 7.185-8.542 2.97-15.046 1.947-22.119-3.689 4.384-5.956 10.532-14.031 9.483-6.8 6.446-9.548 2.924-12.86.787 12.97-11.252 13.886-18.09 8.185-22.511-12.78 15.476-26.464 23.051-42.882 30.05l-1.987 11.975 5.43 16.516-3.58 3.77-7.167 12.15-.09.18v.008l-.392 33.177c10.075 6.744 3.067 11.982 2.339 17.774 5.493 12.343 1.685 21.805-3.12 30.018-2.475-18.493-10.312-29.878-19.485-39.498-12.772 1.04-18.594-1.975-22.606-6.716-4.806 3.95-4.254 8.99-14.424 11.853-4.375 7.198-3.135 15.531-14.42 21.328 6.553 3.149 8.291 7.272 9.746 11.454 6.901 1.693 14.361 4.837 16.758-5.133 2.072-6.048 5.899-9.557 15.2-5.137l6.238 15.798-10.525 11.458-5.066 4.737c-10.788 8.092-21.707 17.012-28.452 0l-22.606-4.345-.392-6.317c-10.24 5.007-14.828.473-20.654-1.975 3.82-3.514 8.578-5.939 8.962-13.432-6.417 3.79-10.812.921-15.2-1.975l8.186-19.748c-5.48 1.691-11.606 4.945-12.084-5.53 8.322 3.725 15.927-7.161 23.777-13.035-5.919-.98-9.25-4.583-12.084-8.687 9.253 4.184 17.233.19 24.945-5.53-7.665-3.793-15.328-9.16-22.993-.79-.805-10.615 7.086-16.085 18.706-19.354-7.154-6.111-8.463-9.359-.584-14.42-3.563 10.094 2.005 9.2 6.43 9.68 6.828-.5 13.99-.25 18.319-6.321 5.22 1.3 2.76 7.555 2.727 12.245 12.805 5.297 19.019-6.122 16.759-16.195-1.604 1.942-4.892 2.665-10.133 1.975 2.724-3.16 3.75-6.319.78-9.479-20.965 2.417-26.709-13.396-30.792-31.202-15.684-2.492-26.413-20.265-4.286-29.628l15.2-5.529c8.773-5.56 6.458-15.651.391-18.169-1.559.763-3.12 2.913-4.678 5.137-2.595 7.239-.996 9.105.25 13.867l-11.163 4.694c-3.891-8.21-3.676-17.574-2.34-21.328l4.291-7.9c-21.02-11.281-18.538-25.344-8.577-40.288-.725 13.914-.76 27.307 14.811 28.835 6.624-13.956 8.94-27.912 3.12-41.867-7.846 1.501-16.765 11.49-22.217-5.925-2.546-5.142-13.896-14.074-22.997.392-1.776-8.041-1.044-17.962 15.59-19.748C4.53 36.384 7.28 22.666 30.908 12.276c2.293 4.402 4.787 8.718 0 16.195-3.231 8.973 1.737 8.805 3.115 12.64 3.41-8.134 6.76-16.397 16.758-10.665-1.802 4.654-6.56 8.975.392 14.615 3.797 8.054 10.697 15.41 1.168 26.464 15.24 11.26 10.976 30.922 5.846 50.954 21.304 3.178 50.221 27.447 4.679 59.249-16.775 19.005 14.447 38.22 24.552 18.957 10.083-17.853 20.214-34.914 19.098-52.535z" fill="#ff0"/><path d="m122.347 229.325 5.95-3.188c-3.472-15.274-2.473-29.132 5.101-27.388l-1.959 11.8 5.402 16.689-3.581 3.769-7.743 13.26z" fill="#0f0f0f"/><path d="M30.905 12.279c.944 1.812 1.892 3.621 2.382 5.63.447 3.72-.688 7.28-3.08 10.713-.487 2.006-.537 3.572-.364 4.91.008 1.613.512 2.67 1.175 3.554.659 1.376 1.618 2.666 2.818 3.608.063.138.13.27.184.42 1.222-2.917 2.449-5.825 3.965-8.123 3.67-4.782 7.88-5.57 12.617-2.414-.31.76-.637 1.52-.96 2.28-1.883 3.62-3.982 7.216.839 11.591 5.824 9.744 8.88 19.02 2.05 26.624.032.031.061.063.093.095-.102.122-.18.237-.286.36a26.96 26.96 0 0 1 3.056 2.637c12.091 14.766 8.122 36.449-4.792 61.984a89.765 89.765 0 0 0-1.81 2.621c-.767.901-1.534 1.971-2.3 3.064a29.443 29.443 0 0 0-.858 2.83c-1.42 3.677-1.56 7.352 1.105 11.03l.004.003v.004l-2.806 1.18c-1.931-7.376-2.492-14.751 4.185-22.127 10.437-24.391 20.243-48.542 1.928-62.003 1.73-8.1 6.068-16.198-1.928-24.297-6.754-10.261-2.935-12.386-2.759-17.316-7.776 3.903-9.92 10.916-9.643 19.271-7.502-8.254-10.927-19.762-7.166-32.4C2.258 29.475 14.55 45.407 23.04 54.876c-9.405.515-19.135 3.29-21.972 13.533-1.3-7.344 5.739-13.204 11.137-14.916a32.383 32.383 0 0 1 3.805-.745c.496-.047.998-.09 1.52-.106-.447-.457-.82-.92-1.226-1.379-4.09-5.52-6.365-10.75-6.536-15.646.077-4.132 1.533-8.061 4.09-11.57 3.416-4.284 8.988-8.224 17.046-11.768zm-2.03 78.727c-.321 4.526-.3 8.364.004 11.622.245 3.273.831 6.288 2.01 8.851.052.121.1.25.153.369 2.602 5.735 7.083 7.662 12.359 7.978l-2.759 4.886c-15.88-6.977-16.05-21.567-12.362-32.77.201-.312.387-.623.595-.936zm29.537 31.515c.852.133 1.716.31 2.586.51 13.181 4.615 20.829 10.78 24.207 17.507.126.278.27.548.384.83v.005c3.613 8.982 1.009 20.62-14.282 33.818-.469.355-.934.71-1.418 1.054a33.536 33.536 0 0 0-6.293 4.953c-.253.18-.476.354-.733.533a23.166 23.166 0 0 0-2.065 2.743c-.105.15-.198.303-.298.454-.135.222-.268.442-.392.663-5.421 8.908-2.398 19.137 10.607 25.707-16.328-2.426-26.343-26.323-.415-40.778 26.474-17.08 7.83-42.226-13.64-44.826zm63.936 106.802 3.17 14.941.407 5.846-.215 18.19-.192 8.502-2.618-3.072-.964-12.848s.69-13.406.69-13.965-.14-17.872-.278-17.593zM78.68 272.445l3.656 6.042c-4.339 3.888-4.174 8.693-14.02 11.465-.037.06-.066.123-.102.184-.051.012-.094.032-.145.043-.154.379-.288.665-.431.991-1.75 3.363-2.54 6.919-4.107 10.317-2.264 3.927-4.766 7.684-10.207 9.358.21.131.406.278.615.411l-.043.023c.166.08.294.17.455.251 2.371 1.527 4.634 3.168 6.441 5.267 1.357 1.896 2.143 3.907 2.849 5.936.732.18 1.464.365 2.202.56 5.997 1.911 11.453 2.723 13.655-3.056.33-.728.627-1.547.866-2.512 2.896-6.431 6.372-7.684 10.067-7.03h.012c.004.001.008.005.012.005.307.055.618.124.928.203.067.016.136.037.204.055 1.133.306 2.286.76 3.44 1.254.193.087.375.157.572.251l.02.055c-6.042-.221-11.99-.31-11.978 7.405-.878 3.02-2.57 5.214-5.65 6.003-5.942 2.99-11.335-.663-16.947-1.673-1.757-6.99-8.18-8.863-14.196-11.175 5.39-4.09 13.055-7.257 13.37-13.404 4.076-7.041 2.164-9.754 6.198-10.894 9.252-4.089 12.93-9.64 12.264-16.335zm48.099 6.136 1.645.207c1.63 1.622 2.354 3.166 2.524 4.66l.023.293c.026.388.018.77-.02 1.152l-1.587 5c-.622 1.454-1.227 2.908-1.414 4.4 1.967 4.42 2.728 8.466 2.692 12.222l-.009.137-2.339 7.68-3.734 8.24c-.008-.054-.014-.11-.023-.164.185-.81 3.127-11.619 3.127-12.426 0-.838-1.3-9.754-1.713-10.731-.412-.978-2.07-6.288-2.758-6.846-.69-.559-5.372-5.164-5.372-5.164l5.65 2.233s2.34-1.255 2.892-1.814c.55-.559 2.342-2.935 1.79-3.354-.55-.419-.547-2.51-1.512-2.79-.965-.28-2.758-.838-3.723-.838-.964 0-3.447-1.536-2.895-1.536z" fill="#4d4d4d"/><path d="M15.136 60.042c5.41-.165 10.56 3.057 11.48 8.562 1.697 15.252 11.992 8.72 20.67 6.285l3.86-1.955-1.79 3.213c5.753 12.622 8.666 24.243-2.273 44.14-3.237 5.887-7.333 12.589-10.133 20.375-2.015 7.83.008 13.06 1.869 18.385l-3.229 1.356c-.027-.057-.044-.116-.07-.172.112-.052.215-.11.329-.161a21.106 21.106 0 0 1-1.438-2.559c-.027-.076-.067-.15-.094-.227-1.73-4.988-2.122-10.054-1.842-13.84.036-.443.094-.888.137-1.332.155-1.197.363-2.26.64-3.037l4.29-7.9c-.07-.037-.126-.079-.196-.117l.02-.035c-.266-.131-.507-.267-.764-.4-10.63-5.962-14.879-12.677-15.035-19.877.023-3.122.735-6.333 1.889-9.6.97-2.495 2.255-5.027 3.812-7.59-5.724 15.981-5.173 28.965 11.477 34.257l4.878-8.114c.054.006.099.018.153.023 4.726-9.956 7.237-19.913 6.187-29.87-.28-3.973-1.202-7.844-2.91-11.59-.056-.137-.101-.272-.158-.408l-.02.004c-.05-.106-.09-.212-.14-.318-.46.25-.904.469-1.353.698-2.616.801-5.317 2.257-7.942 3.123-2.373.575-4.464.656-6.23.172-2.234-.924-4.282-3.323-6.019-8.17-.082-.46-.168-.91-.227-1.41-.28-.354-.568-.666-.85-1.007-.78-1.197-1.96-2.48-3.394-3.598-2.514-2.196-5.244-3.473-8.424-2.864-3.32.263-6.88 2.278-10.176 7.214C4.114 63.73 9.754 60.206 15.137 60.04zm20.453 100.36 3.284-1.195c.004.008.004.018.008.028l.748-.302 11.16-4.06c2.106-1.334 3.556-2.934 4.486-4.623 3.002-4.369 1.344-8.564-1.081-11.355-.201-.23-.425-.434-.647-.64-.855-.86-1.745-1.6-2.543-2.064l1.795-2.093c7.977 2.916 12.453 18.392.685 22.62l-17.22 7.124c-9.868 4.846-12.15 17.31 1.237 22.205 5.504.44 10.2-2.939 14.608-7.684-2.26 3.272-2.094 7.494-8.683 9.078l-.549 3.91c5.788 13.768 9.702 30.297 27.832 25.835 2.94 1.132 5.881.224 8.82-.839l-5.512 3.77c2.646 2.586 1.145 4.752.278 6.982l12.676-2.653c-1.27 14.949-10.23 31.895-22.538 21.944l-2.547-.062-1.665-3.758c-2.3 3.272-4.846 4.346-8.405 5.725 2.89-2.505 3.603-4.26 3.993-7.821-5.5 2.517-10.309 1.801-16.12 1.258l-5.514-2.794 3.445 3.072 5.787 4.33h-7.715c-5.5 1.996-9.476 5.196-13.644 9.078l12.543.839 5.65 3.49h4.683l6.065-3.49c-3.792 6.296-9.188 9.944-15.023 14.102-4.168 2.058-8.152 2.817-12.676 3.072l4.271 2.237 11.853-.701c-9.283 7.908-19.75 16.249-29.764 19.69l5.925-.416 8.542-3.076c-4.254 7.216-8.246 14.58-12.265 21.928 8.43 3.32 13.491-3.38 18.604-9.079-3.324 10.263-2.842 19.506-10.61 26.394 10.011 3.952 14.835-.116 20.531-7.54l-3.582 9.773 1.791 3.633 4.408 1.394s12.265 2.236 12.265 1.678c1.81-3.238 1.79-6.02 1.79-9.636l3.997 7.261-.69 5.588 2.344 6.144c5.347 2.083 8.05.11 12.954-2.234 0 0 5.65-4.468 5.098-5.027-.551-.559-3.307-3.072-3.307-3.072-4.196.805-4.198 2.222-5.376 5.305-.552 0-3.307.141-3.307.141l-3.719-3.632 4.96.976c1.486-3.514 3.662-3.98 7.026-5.306 3.054 1.134 5.092 3.432 7.304 5.725l7.167-5.164 4.823-7.543c-3.456-2.708-5.722-1.68-9.784-.839-3.259 6.18-4.84 6.381-9.647 2.237l4.55.42c3.224-5.35 6.134-7.228 11.986-7.402l2.621.42.349-9.244 5.45 13.804-10.493 11.422-.032.036-.02.02-5.046 4.717c-.863.647-1.725 1.288-2.587 1.932a463.76 463.76 0 0 1-6.802 4.694c-1.885 1.13-3.733 2.017-5.52 2.54-1.682.165-3.83.38-3.83.38l-4.27-1.678-3.307-3.77-1.509-2.714c-.209-.463-.425-.875-.627-1.384l-.156-.03-.188-.338-19.4-3.428-1.975-.38-.948-1.92-.11-1.023-.22-3.542c-.052.025-.1.041-.152.066l-.07-.666-4.832 2.449c-1.07.245-2.072.367-3.013.396l-1.846-.075c-4.14-.435-7.218-2.665-10.74-4.145.95-.874 1.958-1.682 2.942-2.516l.267-.16.255-.298c2.58-2.246 4.89-4.805 5.407-9.44l.537-1.712-4.193 2.237a9.78 9.78 0 0 1-2.586.259l-2.802-.54c-2.139-.693-4.108-1.945-6.065-3.237l.736-1.78 7.606-18.028-.157.06-.07.023c-5.107 1.586-10.746 4.462-11.85-3.688l-.129-1.853c6.853 3.033 13.221-3.804 19.64-9.592l4.419-3.382-4.216-1.238c-.942-.42-1.79-.936-2.586-1.505l-1.09-.834c-1.747-1.48-3.189-3.272-4.51-5.184 7.12 3.22 13.483 1.581 19.553-1.944l1.117-.466.823-.729a66.64 66.64 0 0 0 3.452-2.39c-.161-.08-.322-.162-.482-.243l.615-.548-7.99-3.214-.866-.152c-1.955-.711-3.906-1.137-5.862-1.043l-1.128-.2-1.062.553c-1.382.371-2.763 1.07-4.146 2.155l-.168.086-.227.22c-.559.47-1.119.985-1.677 1.595-.202-2.654.14-4.985.948-7.042l.004-.008 2.17-3.667c3.247-4.03 8.764-6.718 15.584-8.637-.207-.176-.36-.329-.556-.501l.29-.114-1.145-.658c-2.148-1.956-3.632-3.642-4.22-5.196l-.145-.4c-.715-2.49.82-4.742 5.192-7.55-3.563 10.093 2.005 9.199 6.43 9.678 3.641-.266 7.366-.345 10.717-1.257l.811-.063.866-.455a13.53 13.53 0 0 0 2.758-1.442l.647-.34.286-.369a12.594 12.594 0 0 0 2.234-2.394c1.847.46 2.723 1.547 3.095 2.958l.172 2.74v.685c-.148 1.934-.527 4.015-.54 5.862 12.154 5.028 18.354-5.004 17.021-14.65.022-.415.061-.788.075-1.223-.085.06-.17.1-.255.156-.031-.159-.047-.32-.082-.478-1.604 1.943-4.892 2.666-10.133 1.975 1.242-1.441 2.1-2.88 2.417-4.322.016-.065.037-.13.051-.196.04-.216.054-.434.067-.65a4.91 4.91 0 0 0 .02-.753v-.012c-.086-1.18-.598-2.36-1.732-3.542l-.04.004c-.001-.002 0-.006-.003-.008-.784.09-1.507.105-2.25.145-10.951.382-17.239-4.259-21.46-11.124a34.263 34.263 0 0 1-.513-.901 37.866 37.866 0 0 1-.619-1.117c-2.677-5.237-4.43-11.58-5.948-18.205-.737-.117-1.45-.3-2.163-.482-.434-.118-.877-.23-1.293-.364-.47-.149-.932-.314-1.387-.49a26.598 26.598 0 0 1-1.207-.493c-4.161-1.873-7.543-4.82-9.353-8.233-.037-.07-.066-.141-.102-.211-2.492-5.556-.54-12.122 6.685-17.038a34.18 34.18 0 0 1 4.533-2.315zm168.964-17.57 8.966 1.384 5.458 3.75 4.87 5.924-8.965-5.725-10.913-1.383 3.9 8.491.779 8.295-1.756 7.108-3.119 6.52-4.674 4.146.192 4.541.588 5.73-.196 3.357-1.364 3.75 2.923-3.354 1.947-4.937 2.34-5.533 3.115-3.354 1.755-7.508.584 10.074v9.283l.78 7.108-.78 5.729v4.145l.78 3.358 1.755-5.529 3.12-3.557 4.09-4.738-.196-5.136-2.923-5.53 3.12 3.163 1.947 5.329-.192 3.358-2.144 4.15 1.364 1.974 3.115-1.975 3.119-4.937 4.482-4.15 7.018-.395-7.602 2.57-2.727 5.33.388 3.753 13.836 9.283 5.458-2.767 2.34-4.937 3.114 4.15 4.483 6.712 5.458.596 6.234-6.52 2.536-4.146-4.287-2.963-3.315 3.358-3.31-.591-6.435-4.742 7.214 2.963 4.09-4.346h3.9l5.846 2.37 7.406-12.836-6.434-.791-4.287 4.741-8.377 1.975 6.234-4.345 4.286-5.73 10.721.2-2.143-2.962-11.5-9.678-1.752 4.741-2.34 7.504s-4.287 2.566-5.066 2.566c-.78 0-4.87-.987-6.43-1.974-1.559-.988-7.602-8.687-7.602-8.687-6.704-8.732-12.389-18.312-24.556-22.516-.36-1.242.516-1.894 1.529-1.607l.215.42c8.481 1.738 13.623 6.6 17.762 12.401 1.244 1.902 2.39 3.91 3.491 5.968l2.398 2.617c5.815 7.103 11.93 19.84 16.477 3.362l.223-.45-.02-.267c.068-.258.138-.452.204-.725-.258-2.153-.314-3.803-.235-5.129l1.223-3.557 1.034-.815c1.982-.542 4.842 1.065 6.943.815l10.521 10.27c1.199 1.828 2.815 3.623 3.327 5.505v2.198l-1.615 2.41c-.054.05-.095.101-.152.153l-.388.654-1.548 2.312-6.951 11.492-1.246 1.736-2.978 5.247-6.689 11.061c-1.404 1.039-2.692 1.765-3.867 2.202l-.607.216a7.69 7.69 0 0 1-1.787.313l-3.335-.732a7.46 7.46 0 0 1-.948-.612l-4.847-6.732c-.044-.087-.086-.178-.13-.266l-1.304-3.781-1.67 4.514c-1.85 2.485-4.815 3.91-8.02 4.177H239.7c-.207-.016-.415-.033-.623-.06l-5.43-1.943a13.49 13.49 0 0 1-1.909-1.47l-2.72-3.416c-.214-.371-.42-.757-.61-1.16l-1.638-7.554-.196.117c-.003-.041-.01-.08-.012-.121-.194.143-.38.31-.568.466l-2.535 1.513-3.703-.592-1.673-.968c-.166-.153-.309-.246-.482-.42-.028.031-.047.064-.075.095l-.497-.286-3.12 5.133-.301 2.64c-.507 2.057-.693 4.195-.69 6.38l-2.002-2.265c-1.589-2.872-2.77-5.845-3.245-8.828v-3.852l.341-3.342c1.395-5.876.75-9.198.216-12.935l-.165-3.867-4.29 8.295-3.12 5.4c-.158.153-.306.316-.474.458l-4.56 2.05c-.79.133-1.63.215-2.57.184 2.4-2.854 3.51-5.478 3.91-7.974l.58-1.697-.976-6.716-.78-5.729 3.12-4.737 3.702-6.32s-1.17-14.221-1.56-15.011c-.39-.79-3.702-12.045-3.702-12.045zm-98.01 6.094 2.77.348 1.375 10.615c-1.39 5.986-2.947 10.538-.548 16.477-2.502 8.872-7.6 14.452-15.435 20.25-4.796 7.021-11.653 18.012-22.46 14.804-5.276-1.566-8.568-4.735-11.3-9.776l.09.082a17.52 17.52 0 0 0 4.373 4.048l.36.337 1.313.634c.33.17.66.33 1 .478l3.2 1.544 6.062.138 1.031-.663c3.552-.915 6.817-3.288 9.051-7.546l1.313-2.328.455-.635.227-.568c9.23-16.32 17.853-32.055 17.123-48.239zm82.966 10.125 1.928 11.449s-2.204 7.82-1.928 8.938c.275 1.117-4.686 6.148-4.686 6.148l-4.961 4.745-2.755 2.515-4.47 1.007a6.899 6.899 0 0 1-1.254-.501l-3.002-2.387c6.58-5.754 9.968-10.341 10.929-14.039v-.004c.396-1.528.384-2.907 0-4.15v-6.461l2.206 3.91.274 7.261-3.581 7.543-5.514 6.422 4.961-2.794 5.239-4.467 4.134-7.539 2.48-7.264zm-81.592 96.235-2.618 7.402-2.202 3.632-1.105 6.281 1.932 6.564 5.509 3.49 3.444 5.31 6.614 11.309s5.24 8.52 5.102 9.078c-.137.56 1.101 8.24 1.101 8.24l2.344-7.82c.602-.055.43 5.56.137 6.563-.258.885-2.668 6.983-3.554 7.566-.443-2.916-1.01-5.674-1.709-8.252l-.004-.02-.384-2.088-.76-1.65c-2.302-6.855-5.504-12.519-9.2-17.527l-2.304-3.863-4.408-4.89-1.92.278c-5.62.331-9.881-.138-13.15-1.254l-3.558-1.697a18.245 18.245 0 0 1-4.475-3.832c-.17.14-.29.29-.447.431l-.98-.909-2.754-5.584 5.513 5.866 8.954 3.21 7.167-.138-.964-7.962s-.55-4.609.552-6.563c1.103-1.956 5.372-5.866 5.372-5.866zm6.857 1.238-.964 7.821c-.372 4.805 2.546 7.756 5.098 11.45 3.117 2.24 4.232 1.982 6.724-.098l-.008.61c-6.5 10.7-16.946-7.042-13.194-12.941z" fill="#0f0f0f"/><path d="m210.668 126.006 15.889 30.84c11.731 2.404 17.104 10.757 22.217 19.352 6.396 6.578 13.368 23.852 18.318 3.554-1.74-14.474 4.988-8.214 8.965-8.687l10.521 10.27c2.16 3.295 5.816 6.471 1.56 10.266l-7.014 11.85-3.12 4.345-8.965 15.798c-9.834 7.808-13.815.292-17.538-7.899-2.798 11.55-23.68 11.326-24.945-7.9-2.334 1.726-4.152 4.8-8.962 0-3.987 4.389-4.82 9.578-4.678 15.012-3.959-5.921-6.629-12.483-5.035-18.753 2.02-7.952.345-11.253-.028-16.798-3.882 6.418-4.743 16.132-14.811 15.799 7.185-8.542 2.97-15.046 1.947-22.119-3.689 4.384-5.956 10.532-14.031 9.483-6.8 6.446-9.548 2.924-12.86.787 12.97-11.252 13.886-18.09 8.185-22.511-12.78 15.476-26.464 23.051-42.882 30.05l-1.987 11.975 5.43 16.516-3.58 3.77-7.167 12.15-.09.18v.008l-.392 33.177c10.075 6.744 3.067 11.982 2.339 17.774 5.493 12.343 1.685 21.805-3.12 30.018-2.475-18.493-10.312-29.878-19.485-39.498-12.772 1.04-18.594-1.975-22.606-6.716-4.806 3.95-4.254 8.99-14.424 11.853-4.375 7.198-3.135 15.531-14.42 21.328 6.553 3.149 8.291 7.272 9.746 11.454 6.901 1.693 14.361 4.837 16.758-5.133 2.072-6.048 5.899-9.557 15.2-5.137l6.238 15.798-10.525 11.458-5.066 4.737c-10.788 8.092-21.707 17.012-28.452 0l-22.606-4.345-.392-6.317c-10.24 5.007-14.828.473-20.654-1.975 3.82-3.514 8.578-5.939 8.962-13.432-6.417 3.79-10.812.921-15.2-1.975l8.186-19.748c-5.48 1.691-11.606 4.945-12.084-5.53 8.322 3.725 15.927-7.161 23.777-13.035-5.919-.98-9.25-4.583-12.084-8.687 9.253 4.184 17.233.19 24.945-5.53-7.665-3.793-15.328-9.16-22.993-.79-.805-10.615 7.086-16.085 18.706-19.354-7.154-6.111-8.463-9.359-.584-14.42-3.563 10.094 2.005 9.2 6.43 9.68 6.828-.5 13.99-.25 18.319-6.321 5.22 1.3 2.76 7.555 2.727 12.245 12.805 5.297 19.019-6.122 16.759-16.195-1.604 1.942-4.892 2.665-10.133 1.975 2.724-3.16 3.75-6.319.78-9.479-20.965 2.417-26.709-13.396-30.792-31.202-15.684-2.492-26.413-20.265-4.286-29.628l15.2-5.529c8.773-5.56 6.458-15.651.391-18.169-1.559.763-3.12 2.913-4.678 5.137-2.595 7.239-.996 9.105.25 13.867l-11.163 4.694c-3.891-8.21-3.676-17.574-2.34-21.328l4.291-7.9c-21.02-11.281-18.538-25.344-8.577-40.288-.725 13.914-.76 27.307 14.811 28.835 6.624-13.956 8.94-27.912 3.12-41.867-7.846 1.501-16.765 11.49-22.217-5.925-2.546-5.142-13.896-14.074-22.997.392-1.776-8.041-1.044-17.962 15.59-19.748C4.53 36.384 7.28 22.666 30.908 12.276c2.293 4.402 4.787 8.718 0 16.195-3.231 8.973 1.737 8.805 3.115 12.64 3.41-8.134 6.76-16.397 16.758-10.665-1.802 4.654-6.56 8.975.392 14.615 3.797 8.054 10.697 15.41 1.168 26.464 15.24 11.26 10.976 30.922 5.846 50.954 21.304 3.178 50.221 27.447 4.679 59.249-16.775 19.005 14.447 38.22 24.552 18.957 10.083-17.853 20.214-34.914 19.098-52.535z" fill="none" stroke="#000" stroke-width="2.0001814"/><path d="M196.38 80.709c7.096-3.492 15.532-7.418 22.378-7.994l3.119-7.111 27.672-17.378c9.052-2.332 5.958-7.856 1.172-13.824-11.271-6.333-22.265-12.7-6.626-22.12 9.424 1.69 21.812 1.788 22.993 7.9l12.084 12.245 2.727 5.529 6.234-1.975-1.168 20.145c3.308 9.067-2.902 7.612-4.678 11.058 1.38 1.467 3.86 2.007 2.339 5.925l-16.367 11.258c-4.157-4.82-1.63-8.885-1.56-13.23-2.664 3.841-9.383 10.947 2.728 16.983-4.379 10.587-15.753-1.416-16.367-5.53.719 5.563-2.042 7.69 4.286 16.983 2.777 6.056 1.379 12.113-4.678 18.17.714-13.856-5.23-17.591-9.353-24.094-1.906.028-5.676-2.907-4.287 2.37 3.405 8.295 4.738 16.591.388 24.886l-28.507 12.224-31.381-45.989z" fill="#ff0"/><path d="m197.33 79.981 21.631-7.307 2.339-7.505 28.647-17.379 4.677-2.37-11.108 9.875-15.59 9.874-5.457 5.925-6.236 8.295.585-4.542-19.488 5.134z" fill="#4d4d4d"/><path d="M244.09 12.282c2.493.447 5.187.787 7.833 1.152l6.755 1.14.008.004c1.372.31 2.626.68 3.746 1.125l1.948 1.317 2.362 2.112c.152.329.27.677.341 1.05l9.295 9.42 1.837 2.033 3.703 6.912 4.083-1.892 2.128-.674-.874 15.058-.462 4.886 1.074 3.883c.047.53.05 1.014-.004 1.43l-1.85 2.39-1.904 1.737c-.61.392-1.173.838-1.587 1.445l-.408.373 1.101.795c.676.53 1.351 1.062 1.681 1.885l.133 1.736c-.009.059-.004.103-.015.164l-.91 1.7-9.65 6.639-6.176 4.067-1.755-3.358-.192-6.32 1.168-4.542-.82 1.41c.004-.074.015-.148.016-.223-1.744 2.514-5.193 6.429-3.993 10.525l-.074.925 2.531 2.962.549.255c.972.783 2.193 1.558 3.714 2.316-.025.061-.056.1-.082.16l-3.346 3.727c-.062.025-.126.04-.188.062h-3.374l-1.998-.87c-2.21-1.237-4.268-3.256-5.655-5.172l-1.3-2.174c-.208-.463-.37-.9-.424-1.262.029.222.025.41.043.623l-.02-.031v4.357c-.018.448-.01.912 0 1.375v.192l.005.02c.048 1.285.278 2.684.944 4.413l.023.11.028.046c.623 1.571 1.617 3.426 3.158 5.71l.353.83c1.835 4.497 1.36 8.994-1.626 13.491l-3.288 3.59c.413-9.867-2.605-14.519-5.854-18.817l-1.928-3.072-1-.932c-.192-.284-.396-.552-.583-.847-.113.002-.248-.034-.372-.05l-.58-.541h-1.477c-1.506-.427-2.75-.432-1.858 2.962 1.598 3.891 2.709 7.781 3.022 11.673l.062 3.186c-.078 1.822-.333 3.644-.858 5.466l-1.497 3.852c-.05.102-.097.203-.149.305l-4.063-.98-5.07-3.753 1.56-2.17v-5.334l-.193-5.137 1.556 4.741.975 5.73-.388 2.566 4.091 2.762c2.624-8.864.696-16.876-2.727-24.882l2.34-4.15 3.894-1.578c3.46 1.036 4.536 3.44 6.43 6.32l4.095 8.295 1.752 5.725v3.358s2.73-4.343 2.73-5.133-.39-5.53-.975-6.32-2.143-4.343-2.727-5.133c-.585-.79-2.535-5.137-2.535-5.137l-.388-5.925 2.53-4.541 2.536-6.517c-1.617 8.166 3.8 13.998 9.157 17.182l2.924-1.975-5.263-3.95-2.335-5.728 2.923-5.137 2.727-4.737 1.364-2.767 2.727-2.566-.192 4.74-1.56 7.7 1.752 3.95 7.406-7.108 3.315-4.145L276.268 66l-3.703-1.383 4.287-.788 3.702.392c5.63-3.538 3.67-10.24 2.144-15.995-.585-.79-2.34-6.124-2.34-6.124-5.51 2.809-5.205 6.318-6.234 12.049l-7.405 4.541 4.87-5.729c-.565-4.792 1.073-7.898 3.12-12.046l3.506-3.95-13.836-13.032-3.311 3.158 4.87 10.27.78 6.32-4.482 6.12 1.56-6.12-1.756-7.308-3.895-7.899.776-5.333.392-3.754-7.794-.592-6.042-2.37-3.315 2.37 3.119 5.53 7.21 5.528 4.286 7.112.78 6.516-3.703 3.359.247-.823c1.89-1.842 1.404-4.308-.172-7.061l-.463-1.2-1.254-1.406a57.856 57.856 0 0 0-1.496-1.951c-.17-.096-.333-.191-.502-.286l-.45-.506-5.855-3.264c-.908-.59-1.81-1.18-2.602-1.783l-3.624-3.84-1.348-3.703c.003-.042.012-.086.016-.129l1.54-3.554c1.23-1.59 3.229-3.266 6.199-5.055z" fill="#0f0f0f"/><path d="M196.38 80.709c7.096-3.492 15.532-7.418 22.378-7.994l3.119-7.111 27.672-17.378c9.052-2.332 5.958-7.856 1.172-13.824-11.271-6.333-22.265-12.7-6.626-22.12 9.424 1.69 21.812 1.788 22.993 7.9l12.084 12.245 2.727 5.529 6.234-1.975-1.168 20.145c3.308 9.067-2.902 7.612-4.678 11.058 1.38 1.467 3.86 2.007 2.339 5.925l-16.367 11.258c-4.157-4.82-1.63-8.885-1.56-13.23-2.664 3.841-9.383 10.947 2.728 16.983-4.379 10.587-15.753-1.416-16.367-5.53.719 5.563-2.042 7.69 4.286 16.983 2.777 6.056 1.379 12.113-4.678 18.17.714-13.856-5.23-17.591-9.353-24.094-1.906.028-5.676-2.907-4.287 2.37 3.405 8.295 4.738 16.591.388 24.886l-28.507 12.224-31.381-45.989z" fill="none" stroke="#000" stroke-width="2"/><use transform="rotate(47.701 82.81 128.6)" width="100%" height="100%" stroke-opacity="0" xlink:href="#a"/><use transform="rotate(80.239 251.81 51.603)" width="100%" height="100%" stroke="#000" xlink:href="#a"/><g stroke-opacity="0"><use transform="rotate(30.236 242.85 55.919)" width="100%" height="100%" xlink:href="#a"/><use transform="rotate(115.07 197.43 121.9)" width="100%" height="100%" xlink:href="#a"/><use transform="rotate(109.92 205.77 117.64)" width="100%" height="100%" xlink:href="#a"/><use transform="scale(1 -1) rotate(-62.654 53.97 -86.768)" width="100%" height="100%" xlink:href="#a"/><use transform="rotate(77.936 70.616 165.18)" width="100%" height="100%" fill="#fff" xlink:href="#a"/><use transform="rotate(93.561 104.01 170.12)" width="100%" height="100%" xlink:href="#a"/><use transform="rotate(121.49 153 172.56)" width="100%" height="100%" xlink:href="#a"/><use transform="scale(1 -1) rotate(-62.654 -67.663 -119.67)" width="100%" height="100%" xlink:href="#a"/><use transform="rotate(93.763 24.257 99.684)" width="100%" height="100%" xlink:href="#a"/><use transform="rotate(76.14 -18.178 67.811)" width="100%" height="100%" xlink:href="#a"/><use transform="scale(1 -1) rotate(-20.157 -856.204 427.88)" width="100%" height="100%" xlink:href="#a"/><g id="a" stroke-opacity="0"><path d="M101.11 135.54c-.299-2.196-1.863-3.12-4.215-1.967 1.064.378 2.033.845 1.864 2.385-.119.493 2.048.776 2.351-.418z" fill="#a00" transform="matrix(-5.6677 0 0 5.6677 820.5 -753.23)"/><path d="m100.99 135.47-.219.384c-.322-1.699-1.319-2.665-3.42-2.43 1.964-.666 3.412-.251 3.639 2.046z" fill="#ca5d5d" transform="matrix(-5.6677 0 0 5.6677 820.5 -753.23)"/><path d="M98.798 136.11c.159-1.085-.18-2.042-1.584-2.557 2.296-.076 2.757 1.345 3.337 2.585-.424.21-1.37.22-1.753-.028z" fill="#8a0000" transform="matrix(-5.6677 0 0 5.6677 820.5 -753.23)"/><path d="M247.439 14.97c1.693-12.446 10.558-17.68 23.888-11.148-6.03 2.14-11.518 4.792-10.563 13.52-6.698 3.52-11.36 3.649-13.325-2.372z" fill="none" stroke="#000" stroke-opacity="1" stroke-width="2.0006980999999997"/></g><use transform="scale(1 -1) rotate(10.944 749.675 84.45)" width="100%" height="100%" xlink:href="#a"/></g><path d="M109.628 3.596c27.545.814 42.433 3.008 36.248 7.503 8.836 3.537 23.838 6.656 25.723 10.662l-2.73 7.508-4.675 2.37c5.252 6.222-2.068 13.022-7.798 19.75l-4.09-3.359c-15.53-11.436-39.976 27.744-13.057 23.108l5.455-3.95c.313 4.513-2.745 4.077 5.846 9.478 7.952-2.32 17.455-1.87 18.319 3.95-5.631-4.396-9.941.58-14.032 7.108 13.226 3.346 31.445 1.76 22.997-11.058 6.165-5.028 13.789-4.97 18.538 4.044.325 4.794.01 9.511-1.407 14.094 8.074 1.103 16.719 1.566 22.303 9.307 6.248 8.66 13.737 13.317 22.138 16.794 9.255.652 17.228 5.985 28.844-1.975-6.023 15.118-22.157 11.244-36.638 9.478 5.093 16.209 18.18 23.667 36.248 25.674-10.477 4.968-31.79 9.116-40.535-7.504-4.354-8.276-7.837-5.296-13.165-4.982-1.41 8.093 5.655 17.105 8.066 24.04-9.07-2.432-23.512-8.228-24.987-16.33-4.017 3.594-5.897 9.542-4.263 18.752-15.144 1.721-13.23-8.369-25.806-13.76 1.8 7.341-2.899 11.772-10.768 14.78 1.458-9.125-.205-17.138-9.074-22.599-1.217 11.355-7.486 20.293-12.75 29.71-2.922-11.36-2.887-23.831-18.946-30.27-6.094 5.24-15.674 12.34-23.545 11.325 10.345-9.873-.982-53.217-8.185-53.321-.437 7.368-6.91 6.99-11.693 6.316 2.918-9.805 6.887-20.704 2.398-29.415-5.879-11.408-3.339-21.358-2.398-31.806-6.297 1.697-12.018 1.059-16.759-3.554 7.553-1.25 12.517-8.79 17.539-16.195l6.63-4.647c-9.375-14.82-7.054-20.38 12.656-10.462z" fill="#ff0"/><path d="M185.964 73.464c1.335-.012 2.586.165 3.726.533.05.02.1.037.15.058.118.04.223.105.34.15 1.56.731 3.042 1.927 4.377 3.647 1.477 2.382 2.173 5.731 1.747 10.133-.048.51-.141 1.014-.211 1.52a40.593 40.593 0 0 1-1.121 5.29c3.79.518 7.697.92 11.363 1.975 4.13 1.641 7.743 4.224 11.015 7.43a45.981 45.981 0 0 0 6.222 6.962c6.703 6.977 15.193 11.255 25.952 11.489 5.121.934 10.43 1.187 16.826-2.535.503-.15.994-.275 1.504-.44-12.6 11.669-37.148 2.406-48.329-5.132-8.567-12.174-18.845-17.834-31.565-14.22 9.562-23.462.337-24.084-9.118-24.42 1.339-.95 2.733-1.656 4.141-2.092 1.027-.2 2.031-.34 2.982-.349zm-3.832 37.16c18.241 4.225 41.602 3.264 49.888 17.578.028.088.065.171.094.259l-.494-.063c4.815 15.325 16.783 22.817 33.345 25.286-17.74 2.83-28.652-7.834-37.427-22.718-3.938-14.951-29.867-13.855-45.407-20.34z" fill="#4d4d4d"/><g fill="#fff" stroke-opacity="0"><g fill="#4d4d4d"><path d="M102.442 90.315c.703 4.866 3.293 10.363-1.153 13.505-3.04 1.163-2.732 5.182-.828 10.562 2.925 4.825-.254 9.303-2.485 13.834 1.559-5.16 3.044-10.315-1.348-14.956-3.084-7.102.372-8.625 1.87-11.82 4.6-.907 3.042-7.065 3.944-11.126zM97.681 66.794c-.346 4.905 1.016 10.838-3.993 12.937-3.217.472-3.77 4.465-3.051 10.135 1.832 5.35-2.224 9.029-5.365 12.968 2.618-4.7 5.163-9.41 1.86-14.9-1.505-7.608 2.195-8.342 4.336-11.134 4.685.117 4.47-6.237 6.213-10.006zM116.725 105.391c.62 4.877 3.117 10.419-1.382 13.483-3.06 1.11-2.82 5.134-1.006 10.547 2.843 4.874-.413 9.296-2.719 13.788 1.646-5.133 3.218-10.26-1.095-14.978-2.963-7.153.518-8.617 2.071-11.784 4.614-.827 3.16-7.012 4.13-11.056z"/></g><path d="M138.149 114.8c1.737 4.591 5.451 9.38 1.791 13.433-2.716 1.809-1.546 5.662 1.474 10.49 3.896 4.058 1.76 9.132.563 14.05.406-5.382.741-10.74-4.546-14.295-4.543-6.246-1.5-8.5-.727-11.948 4.292-1.905 1.441-7.569 1.444-11.73z" fill="#4d4d4d"/><path d="M151.864 119.277c2.702 4.085 7.374 7.918 4.695 12.693-2.251 2.377-.266 5.87 3.738 9.896 4.69 3.079 3.72 8.508 3.632 13.57-.785-5.337-1.633-10.638-7.569-12.912-5.8-5.065-3.326-7.948-3.33-11.485 3.766-2.825-.255-7.704-1.166-11.762z" fill="#4d4d4d" fill-opacity="1"/></g><path d="M109.728 3.6c27.487.816 42.34 3.01 36.162 7.5.129.051.284.101.415.152l-.016.016c.123.04.253.077.376.118 7.033 2.7 17.33 5.177 22.283 8.017a19.07 19.07 0 0 1 2.277 1.786c.15.19.297.379.388.572l-2.72 7.48h-.003l-5.063 2.073c.352.354.631.705.902 1.054 2.492 3.634.967 7.454-1.865 11.332-.095.116-.167.233-.263.349-2.031 2.443-4.478 4.868-6.21 7.323l-.608-.497c-5.016-5.746-9.62-5.412-14.173-4.354 4.31-4.207 8.887-1.923 13.448 0 4.874-4.9 8.579-9.956 5.748-15.896l4.483-4.644c.126-.921.443-1.84-1.947-2.762-4.412-2.748-7.994-4.824-11.109-6.52l-5.65-2.469c-1.912 7.29-.79 8.656-15.787 4.643-8.646-1.919-13.072-.576-17.927 2.37 1.745-1.686 5.85-8.768 17.927-5.728 7.296 1.591 7.552 2.325 11.304 1.78 9.09-9.773-20.104-10.217-31.276-12.05L92.43 14.073l3.66-2.23zM78.032 9.207l1.45.121c2.744.407 6.636 1.816 11.794 4.346l.811.42 6.752 3.769-19.29-7.402-2.759 1.116 1.105 4.75 2.202 5.587 6.066 5.584 7.163 5.027 3.585 5.866-3.585-3.072-4.409 8.1-2.206 13.964v-9.498l.553-6.422 3.581-6.983-10.195-8.377-6.614 6.422-7.441 7.82-5.788 5.306h7.715l7.441-.838-2.206 7.543v12.01l3.586 12.287 2.754 10.615-2.48 10.893-.827 8.934 4.686-3.628 3.582-8.1V89.78l-3.307-8.378 6.34 6.144v8.1l-1.101 5.587 4.96 6.422 6.062 17.598 1.928 15.638-3.856 12.01 3.856-2.234 4.134-4.749 4.686-8.1.274 5.028-2.754 4.189 4.408-1.955 3.585-5.028 1.376-9.216.826 8.66 3.86 5.027 8.542 5.866 4.96 7.26 2.76 10.611.826-6.7 3.307-5.31 3.856-4.188v-6.144l-1.928-8.378 6.062 7.54 7.166 6.143 4.408 6.983-1.653 6.704 3.033-.56 3.86-4.467v-6.144l-2.481-9.216c6.194 8.37 12.192 13.048 18.499 21.398l-.008-.004-.64-.502c-3.868-3.057-6.234-7.912-13.717-11.12 1.8 7.342-2.9 11.773-10.768 14.78.215-1.344.333-2.654.4-3.946l.168-.78-.274-5.305-.408-.709c-1.083-4.628-3.795-8.677-8.96-11.857-1.214 11.325-7.452 20.249-12.708 29.638l-.055.016c-2.907-11.347-2.9-23.788-18.934-30.216-5.945 5.112-15.206 11.975-22.964 11.364l1.112-2.265.22-.44.004-.023c1.798-3.526 2.403-8.724 2.194-14.478l.145-1.979-1.653-11.727-1.097-3.79a84.731 84.731 0 0 0-1.587-5.477l-1.039-3.582-3.307-7.123-3.581-3.072-.114.607c-.02-.001-.042-.012-.062-.012-.018.301-.06.57-.098.846l-.189.988c-.484 1.95-1.523 3.165-2.868 3.879l-2.59.787c-.44.064-.891.093-1.348.11l-4.585-.349c1.522-5.107 3.313-10.506 4.052-15.74l.498-1.869-.153-2.692c0-.899-.05-1.786-.15-2.664l-.109-1.904-.881-2.437c-.065-.181-.125-.362-.196-.541l-.992-2.747-2.892-9.357-.278-8.938 1.38-12.429-8.131.698-3.229-.514c-2.012-.696-3.907-1.857-5.67-3.565l.079-.043c4.912-.853 8.724-4.385 12.178-8.785l.223-.22.74-1.038c.568-.761 1.12-1.559 1.674-2.351l2.77-3.883 2.65-1.857 4.02-2.598-1.517-2.794-2.935-5.298c-.111-.28-.22-.56-.313-.826l-.725-3.672a3.82 3.82 0 0 1 .137-.803l.09-.384c.272-.703.801-1.19 1.567-1.474zm36.5 43.861c-6.557 9.96-7.006 19.915-4.405 29.875.682 3.397-.615 6.4-2.492 7.813 3.918-2.342 7.92-4.432 11.175-8.789 1.3 4.003 3.108 8.007 1.238 12.01 3.328.237 7.168-3.37 8.405-5.306 1.394 2.666 2.62 5.399 2.206 8.797 3.563-2.012 4.272-5.47 5.788-8.518 1.44 1.052 3.493 1.019 3.581 4.47 2.162-4.47 5.002-8.192 11.163-8.24l5.65-5.446 4.961-2.234 5.235.698 1.591 1.422c.054.15.081.319.121.478l-1.324-.407c-.793-.412-1.56-.643-2.304-.706l-.29-.09-.164.07c-1.53.007-2.965.685-4.334 1.83l-.463.197-4.27 5.027-.56 1.418c-.063.099-.127.187-.189.286.023.006.048.01.07.017l-.148.372c-6.046-2.96-11.013 3.714-15.983 9.776-.444-2.5-.435-5.911-2.618-4.886.051 4.084-4.15 6.558-6.755 9.635-.559-3.24.831-6.726-2.34-9.635.863 1.456-10.11 8.254-9.92 7.398.18-.814 2.766-12.858-.69-12.566-4.64 5.368-9.416 4.837-14.055 7.542 2.93-5.275 5.878-9.724 4.134-15.363-2.548-11.244.251-20.165 7.985-26.944zm65.068 64.034c3.63 3.264 9.105 5.78 7.7 11.085-1.588 2.874 1.202 5.75 6.077 8.625 5.303 1.782 2.707 7.568 3.88 12.491-2.087-4.965-1.218-10.163-7.528-10.85-6.871-3.42-5.195-6.845-6.077-10.266 2.943-3.695-2.162-7.39-4.052-11.085zm19.686 13.056c9.679 3.416 19.36 2.226 29.04 13.233 9.743 16.1 24.53 12.327 38.78 10.665-15.079 3.745-30.14 7.422-40.144-8.887-6.773-8.728-18.1-10.543-27.676-15.01zm-21.781 2.477c2.587 4.16 7.152 8.123 4.341 12.82-2.316 2.312-.43 5.858 3.46 9.996 3.444 2.404 6.166 5.437 7.222 8.93.094 1.168.237 2.382.466 3.676-.636-5.359-5.772-9.615-11.641-12.057-5.657-5.229-3.104-8.04-3.01-11.575 3.844-2.716-.05-7.707-.838-11.79z" fill="#0f0f0f"/><path d="M123.591 22.135c3.46 14.473 15.111-1.782 5.1-2.653-2.184-.19-5.547.783-5.1 2.653z" fill="#fff" stroke="#000" stroke-width="2.0001814"/><path d="M109.628 3.596c27.545.814 42.433 3.008 36.248 7.503 8.836 3.537 23.838 6.656 25.723 10.662l-2.73 7.508-4.675 2.37c5.252 6.222-2.068 13.022-7.798 19.75l-4.09-3.359c-15.53-11.436-39.976 27.744-13.057 23.108l5.455-3.95c.313 4.513-2.745 4.077 5.846 9.478 7.952-2.32 17.455-1.87 18.319 3.95-5.631-4.396-9.941.58-14.032 7.108 13.226 3.346 31.445 1.76 22.997-11.058 6.165-5.028 13.789-4.97 18.538 4.044.325 4.794.01 9.511-1.407 14.094 8.074 1.103 16.719 1.566 22.303 9.307 6.248 8.66 13.737 13.317 22.138 16.794 9.255.652 17.228 5.985 28.844-1.975-6.023 15.118-22.157 11.244-36.638 9.478 5.093 16.209 18.18 23.667 36.248 25.674-10.477 4.968-31.79 9.116-40.535-7.504-4.354-8.276-7.837-5.296-13.165-4.982-1.41 8.093 5.655 17.105 8.066 24.04-9.07-2.432-23.512-8.228-24.987-16.33-4.017 3.594-5.897 9.542-4.263 18.752-15.144 1.721-13.23-8.369-25.806-13.76 1.8 7.341-2.899 11.772-10.768 14.78 1.458-9.125-.205-17.138-9.074-22.599-1.217 11.355-7.486 20.293-12.75 29.71-2.922-11.36-2.887-23.831-18.946-30.27-6.094 5.24-15.674 12.34-23.545 11.325 10.345-9.873-.982-53.217-8.185-53.321-.437 7.368-6.91 6.99-11.693 6.316 2.918-9.805 6.887-20.704 2.398-29.415-5.879-11.408-3.339-21.358-2.398-31.806-6.297 1.697-12.018 1.059-16.759-3.554 7.553-1.25 12.517-8.79 17.539-16.195l6.63-4.647c-9.375-14.82-7.054-20.38 12.656-10.462z" fill="none" stroke="#000" stroke-width="2.0001814"/></svg>